<?xml version="1.0" standalone="no"?>
<!DOCTYPE svg PUBLIC "-//W3C//DTD SVG 20010904//EN"
 "http://www.w3.org/TR/2001/REC-SVG-20010904/DTD/svg10.dtd">
<svg version="1.0" xmlns="http://www.w3.org/2000/svg"
 width="260.000000pt" height="260.000000pt" viewBox="0 0 260.000000 260.000000"
 preserveAspectRatio="xMidYMid meet">
<metadata>
Created by potrace 1.11, written by Peter Selinger 2001-2013
</metadata>
<g transform="translate(0.000000,260.000000) scale(0.100000,-0.100000)"
fill="#000000" stroke="none">
<path d="M657 2433 c-3 -5 -5 -64 -5 -133 -1 -69 -3 -141 -7 -160 -3 -19 -10
-62 -16 -95 -17 -103 -58 -222 -112 -328 -42 -83 -66 -117 -134 -184 -45 -46
-86 -83 -92 -83 -6 0 9 30 33 68 84 131 147 308 173 492 10 70 10 356 0 392
-5 18 -12 25 -21 22 -12 -4 -15 -32 -15 -132 0 -70 -3 -138 -5 -152 -2 -14 -8
-47 -12 -75 -4 -27 -8 -52 -9 -55 -1 -3 -5 -21 -9 -40 -36 -164 -117 -321
-220 -427 -54 -57 -79 -70 -48 -25 24 34 85 170 105 237 21 64 45 186 53 261
7 65 7 258 0 289 -3 11 -5 35 -5 53 -1 25 -5 32 -21 32 -18 0 -19 -7 -17 -117
2 -151 -5 -216 -38 -349 -42 -166 -118 -311 -212 -401 -22 -21 -23 -29 -23
-158 0 -122 2 -135 18 -135 24 0 127 -34 192 -63 160 -72 367 -229 519 -391
20 -22 49 -52 65 -68 16 -15 39 -42 52 -59 12 -17 38 -47 56 -67 19 -21 59
-71 91 -113 177 -237 421 -375 652 -368 189 6 355 85 515 248 201 203 336 498
395 866 18 106 33 455 20 443 -5 -4 -14 -3 -22 3 -11 9 -13 -2 -13 -62 -1
-121 -12 -248 -30 -337 -11 -57 -18 -88 -26 -124 -3 -15 -6 -31 -6 -35 -1 -5
-18 -58 -39 -120 -146 -437 -429 -711 -747 -727 -75 -4 -195 17 -237 42 -18
10 -15 11 20 12 59 1 156 26 231 60 176 80 331 239 448 460 69 131 110 241
146 395 39 165 51 255 55 435 4 146 3 156 -15 168 -17 10 -20 10 -20 -5 -2
-83 -10 -236 -15 -273 -50 -421 -217 -767 -456 -949 -113 -86 -228 -129 -363
-136 -31 -1 -165 21 -173 29 -2 2 29 11 70 20 71 16 183 64 238 103 201 139
361 394 449 711 30 110 35 132 46 211 3 25 8 57 10 71 3 14 7 100 10 193 5
163 4 167 -16 167 -11 0 -20 -3 -20 -7 -1 -5 -3 -53 -5 -108 -3 -97 -10 -178
-21 -240 -3 -16 -7 -43 -10 -60 -11 -69 -57 -223 -93 -315 -124 -318 -345
-534 -586 -574 -81 -14 -116 -14 -175 -1 -33 7 -32 8 38 30 388 123 674 657
674 1255 0 147 0 150 -22 150 -18 0 -20 -7 -21 -92 -1 -90 -2 -107 -13 -213
-13 -118 -58 -294 -107 -413 -116 -285 -296 -475 -510 -538 -57 -17 -157 -24
-185 -13 -15 6 -15 8 -3 8 9 1 53 19 97 41 154 77 294 235 392 443 109 231
156 447 158 732 2 148 1 155 -18 155 -14 0 -20 -7 -20 -22 0 -58 -10 -237 -14
-268 -3 -19 -7 -53 -10 -75 -14 -106 -72 -295 -127 -411 -126 -266 -328 -438
-537 -459 -34 -3 -51 -1 -47 5 3 6 11 10 17 10 23 0 147 92 204 152 149 156
252 371 311 647 19 91 25 157 29 309 l5 192 -23 0 c-22 0 -23 -2 -23 -102 -1
-246 -52 -474 -149 -668 -108 -215 -263 -362 -430 -406 -77 -21 -84 -17 -33
17 114 75 233 224 307 382 35 75 85 214 94 262 2 11 11 56 20 100 19 96 32
236 30 331 -3 151 -4 154 -18 154 -8 0 -17 6 -19 13 -3 6 -6 -42 -7 -108 -2
-125 -2 -132 -14 -230 -9 -73 -57 -262 -85 -333 -94 -237 -257 -419 -425 -476
-66 -21 -67 -21 -21 17 94 76 192 208 250 332 29 62 81 206 89 246 41 208 48
269 46 429 -1 69 -1 133 -1 143 0 19 -7 21 -27 8 -9 -5 -14 -47 -17 -147 -2
-76 -6 -151 -9 -167 -3 -15 -11 -55 -17 -90 -6 -34 -24 -105 -41 -157 -76
-239 -210 -421 -371 -506 l-72 -38 61 70 c105 120 168 229 218 381 69 211 87
361 76 616 -3 59 -5 68 -21 65 -17 -3 -19 -17 -23 -153 -10 -328 -111 -610
-282 -783 -37 -37 -131 -102 -148 -102 -7 0 -8 3 -1 8 41 29 130 168 175 273
30 71 82 255 95 334 8 53 14 350 8 398 -5 34 -24 50 -36 30z"/>
<path d="M95 2334 c-6 -2 -9 -61 -8 -151 1 -162 -14 -263 -62 -404 -22 -65
-25 -91 -23 -170 l3 -94 27 58 c33 69 74 195 82 252 3 22 8 51 11 65 20 104
21 308 1 405 -3 11 -5 26 -5 33 -1 12 -8 14 -26 6z"/>
</g>
</svg>
