<?xml version="1.0" encoding="utf-8"?>
<!-- Generator: Adobe Illustrator 15.1.0, SVG Export Plug-In . SVG Version: 6.00 Build 0)  -->
<!DOCTYPE svg PUBLIC "-//W3C//DTD SVG 1.1//EN" "http://www.w3.org/Graphics/SVG/1.1/DTD/svg11.dtd">
<svg version="1.1" id="Layer_1" xmlns="http://www.w3.org/2000/svg" xmlns:xlink="http://www.w3.org/1999/xlink" x="0px" y="0px"
	 width="173px" height="100px" viewBox="0 0 173 100" enable-background="new 0 0 173 100" xml:space="preserve">
<g>
	<path fill="#FFFFFF" d="M172.902,18.648l-0.633,0.059l-0.479-0.452l-0.005,0.013l-0.006-0.003l-0.166,0.494
		c0.021,0.328,0.064,1.549-0.09,3.501c-0.293,3.274-0.947,6.235-2.006,9.051c-1.638,4.322-3.922,8.011-6.802,10.982
		c-1.39,1.541-3.194,3.057-5.514,4.632c-1.793,1.205-3.897,2.25-6.589,3.277c-2.766,0.89-5.041,1.39-7.157,1.565
		c-2.808,0.225-5.007,0.164-7.062-0.177c-1.646-0.215-3.302-0.592-4.949-1.131c4.535,0.199,9.273-0.688,13.648-2.518
		c2.592-1.157,4.779-2.419,6.702-3.864c2.363-1.842,4.087-3.482,5.412-5.141c2.755-3.205,4.877-7.102,6.308-11.584
		c0.912-2.898,1.416-5.904,1.535-9.196c0.057-1.968-0.056-3.207-0.094-3.546l-0.633,0.064l-0.479-0.448l-0.007,0.015l-0.003-0.005
		l-0.163,0.496c0.02,0.312,0.074,1.48-0.061,3.345c-0.248,3.124-0.848,5.96-1.832,8.664c-1.521,4.146-3.657,7.699-6.361,10.579
		c-1.279,1.468-2.932,2.903-5.188,4.507c-1.791,1.229-3.84,2.292-6.248,3.243c-4.388,1.604-9.178,2.175-13.521,1.58
		c-1.171-0.13-2.352-0.351-3.531-0.659c3.932-0.104,7.957-1.033,11.703-2.704c2.301-1.068,4.426-2.353,6.34-3.834
		c2.284-1.874,3.854-3.427,5.074-5.018c2.583-3.134,4.551-6.891,5.846-11.168c0.834-2.778,1.278-5.655,1.357-8.802
		c0.037-2.135-0.121-3.353-0.13-3.404l-1.282,0.147c0.002,0.011,0.098,1.188-0.027,3.191c-0.209,2.982-0.752,5.691-1.658,8.282
		c-1.375,3.892-3.418,7.405-5.926,10.173c-1.504,1.79-3.396,3.287-4.86,4.381c-1.786,1.254-3.773,2.333-5.899,3.203
		c-4.152,1.62-8.671,2.261-12.831,1.773c-0.729-0.067-1.463-0.173-2.2-0.313c3.338-0.325,6.697-1.266,9.849-2.775
		c2.051-0.994,4.052-2.267,5.97-3.8c2.089-1.796,3.598-3.356,4.737-4.894c2.376-3.017,4.241-6.733,5.392-10.75
		c0.756-2.668,1.145-5.416,1.178-8.41c0.01-2.037-0.154-3.197-0.162-3.245l-1.28,0.162c0,0.012,0.104,1.127,0.005,3.035
		c-0.17,2.837-0.657,5.421-1.489,7.896c-0.873,2.581-2.534,6.367-5.491,9.765c-1.107,1.356-2.514,2.674-4.537,4.256
		c-1.795,1.295-3.664,2.359-5.551,3.162c-3.919,1.64-8.16,2.343-12.138,1.968c-0.333-0.025-0.668-0.056-1.004-0.096
		c2.782-0.479,5.573-1.406,8.134-2.724c1.829-0.928,3.654-2.154,5.6-3.765c1.916-1.733,3.316-3.251,4.4-4.767
		c2.791-3.719,4.223-7.668,4.936-10.328c0.68-2.549,1.006-5.17,1.004-8.021c-0.02-1.937-0.189-3.039-0.198-3.083l-1.278,0.174
		c0.002,0.01,0.11,1.07,0.035,2.88c-0.129,2.692-0.561,5.151-1.318,7.514c-0.789,2.445-2.304,6.051-5.058,9.354
		c-1.049,1.323-2.397,2.641-4.218,4.129c-1.827,1.357-3.528,2.379-5.2,3.123c-3.64,1.634-7.524,2.404-11.274,2.165
		c0.168-0.044,0.338-0.092,0.502-0.145c1.875-0.478,3.82-1.271,5.944-2.42c1.646-0.88,3.298-2.06,5.226-3.731
		c1.697-1.611,3.029-3.13,4.066-4.637c2.573-3.623,3.857-7.387,4.482-9.906c0.603-2.434,0.871-4.928,0.826-7.631
		c-0.047-1.839-0.225-2.882-0.23-2.924l-1.277,0.192c0.002,0.01,0.115,1.01,0.066,2.726c-0.091,2.552-0.469,4.886-1.152,7.133
		c-0.705,2.312-2.078,5.739-4.625,8.94c-1.01,1.313-2.293,2.628-3.902,4.001c-1.848,1.43-3.34,2.379-4.842,3.08
		c-1.953,0.921-3.701,1.526-5.385,1.855c-0.597,0.16-1.205,0.235-1.846,0.314c-0.297,0.038-0.592,0.076-0.803,0.112
		c-0.307,0.008-0.611,0.026-0.914,0.042c-0.236,0.013-0.471,0.026-0.704,0.035c1.642-0.535,3.327-1.315,5.009-2.315
		c1.908-1.084,3.581-2.534,4.842-3.693c1.469-1.455,2.727-2.971,3.738-4.503c2.354-3.521,3.493-7.1,4.031-9.481
		c0.525-2.322,0.736-4.686,0.652-7.238c-0.063-1.52-0.216-2.485-0.264-2.753l-0.624,0.107L125.8,1.553l-0.005,0.021l-0.007-0.007
		l-0.146,0.514c0.027,0.244,0.119,1.144,0.096,2.569c-0.053,2.407-0.375,4.615-0.985,6.754c-0.623,2.176-1.856,5.424-4.198,8.527
		c-0.99,1.33-2.205,2.636-3.594,3.867c-1.268,1.033-2.788,2.2-4.49,3.039c-1.717,0.89-3.393,1.529-4.996,1.901
		c-0.99,0.26-2.027,0.44-3.109,0.537c0.145-0.064,0.287-0.13,0.43-0.196c0.239-0.107,0.479-0.216,0.782-0.351
		c0.253-0.145,0.511-0.283,0.769-0.42c0.575-0.309,1.172-0.626,1.7-1.009c3.086-1.971,5.802-4.739,7.854-8.01
		c2.139-3.424,3.129-6.815,3.582-9.054c0.447-2.2,0.604-4.438,0.476-6.848c-0.095-1.645-0.29-2.574-0.296-2.613l-1.271,0.236
		c0.002,0.008,0.129,0.895,0.129,2.418c-0.014,2.268-0.283,4.352-0.822,6.375c-0.54,2.043-1.637,5.109-3.776,8.117
		c-2.015,2.824-4.581,5.147-7.452,6.741c-0.457,0.292-0.953,0.519-1.477,0.759c-0.268,0.122-0.536,0.244-0.725,0.344
		c-0.254,0.089-0.504,0.187-0.752,0.28c-0.555,0.213-1.076,0.414-1.652,0.55c-0.656,0.201-1.346,0.363-2.078,0.484
		c0.882-0.469,1.717-0.988,2.499-1.559c2.805-1.946,5.271-4.648,7.137-7.822c1.92-3.317,2.767-6.522,3.14-8.623
		c0.371-2.083,0.472-4.195,0.306-6.463c-0.126-1.544-0.325-2.418-0.335-2.455l-1.264,0.26c0,0.008,0.133,0.837,0.157,2.264
		c0.022,2.13-0.192,4.093-0.659,6.003c-0.465,1.911-1.426,4.801-3.361,7.703c-1.848,2.727-4.186,4.988-6.771,6.545
		c-1.635,1.033-3.475,1.814-5.416,2.305c0.499-0.33,0.979-0.676,1.43-1.037c2.521-1.918,4.739-4.551,6.416-7.624
		c1.701-3.21,2.406-6.227,2.698-8.189c0.298-1.974,0.341-3.959,0.134-6.075c-0.151-1.45-0.358-2.267-0.367-2.3l-1.262,0.29
		c0.002,0.008,0.142,0.78,0.188,2.114c0.06,1.989-0.103,3.831-0.499,5.63c-0.389,1.78-1.214,4.492-2.954,7.294
		c-1.676,2.627-3.787,4.82-6.117,6.349c-1.214,0.837-2.565,1.534-4.015,2.066c-0.068,0.024-0.139,0.044-0.208,0.065l-0.188,0.058
		c0.229-0.18,0.444-0.361,0.65-0.542c2.244-1.888,4.213-4.447,5.697-7.415c1.482-3.098,2.049-5.929,2.265-7.756
		c0.224-1.858,0.211-3.719-0.036-5.691c-0.178-1.354-0.393-2.116-0.4-2.147l-1.252,0.32c0,0.007,0.146,0.724,0.22,1.966
		c0.098,1.846-0.013,3.564-0.343,5.261c-0.314,1.653-1.016,4.192-2.555,6.884c-1.508,2.531-3.395,4.657-5.469,6.149
		c-0.752,0.57-1.627,1.103-2.675,1.628c-0.324,0.163-0.654,0.316-0.983,0.457c0.04-0.04,0.081-0.081,0.12-0.12l1.589-1.631
		l1.487-2.057c0.144-0.196,0.284-0.39,0.446-0.646l1.472-2.833c1.11-2.869,1.696-5.268,1.795-7.316l0.103-1.519
		c0.035-0.374,0.002-0.725-0.026-1.035c-0.013-0.145-0.027-0.289-0.034-0.471c-0.029-0.3-0.046-0.587-0.062-0.857
		c-0.029-0.522-0.06-1.015-0.162-1.452l-0.428-1.896l-1.268,0.244l0.279,1.925c0.052,0.328,0.043,0.736,0.035,1.211
		c-0.006,0.29-0.011,0.593-0.002,0.863c-0.01,0.167-0.006,0.336-0.004,0.508c0.004,0.247,0.01,0.504-0.035,0.781l-0.222,1.503
		c-0.221,1.794-0.94,3.978-2.104,6.424l-1.519,2.442c-0.124,0.16-0.256,0.313-0.388,0.468l-1.459,1.729l-1.521,1.321
		c-0.397,0.354-0.855,0.704-1.396,1.075c-0.504,0.346-1.048,0.669-1.622,0.962l0.209-0.237c0.308-0.346,0.614-0.69,0.931-1.101
		l1.076-1.663c0.443-0.611,0.751-1.275,1.002-1.844l0.275-0.592c0.185-0.394,0.366-0.782,0.547-1.217
		c0.898-2.665,1.363-4.981,1.382-6.891c0.042-1.008,0.079-1.959-0.065-2.804c-0.036-0.279-0.061-0.544-0.086-0.796
		c-0.046-0.483-0.09-0.939-0.199-1.345l-0.461-1.749l-1.259,0.289l0.313,1.778c0.058,0.302,0.061,0.681,0.066,1.121
		c0.003,0.269,0.008,0.549,0.025,0.867c0.062,0.712-0.044,1.565-0.163,2.522c-0.155,1.678-0.748,3.726-1.744,6.039
		c-0.173,0.332-0.361,0.658-0.552,0.985l-0.332,0.583c-0.262,0.483-0.548,0.99-0.949,1.452l-1.098,1.425
		c-0.259,0.275-0.534,0.536-0.807,0.794c-0.171,0.163-0.341,0.323-0.511,0.489c-0.051,0.053-0.109,0.099-0.165,0.145
		c-0.064,0.053-0.127,0.105-0.189,0.163c-0.555,0.512-1.173,0.994-1.835,1.425c-0.107,0.069-0.211,0.137-0.318,0.204l0.028-0.04
		c1.508-2.017,2.448-4.337,3.042-5.955c0.707-2.51,1.035-4.682,0.979-6.555c-0.005-0.899-0.01-1.75-0.17-2.5
		c-0.044-0.253-0.079-0.496-0.11-0.727c-0.061-0.448-0.12-0.872-0.239-1.25L78.8,4.031l-1.249,0.333L77.896,6
		c0.059,0.273,0.076,0.623,0.097,1.027c0.012,0.25,0.023,0.512,0.049,0.811c0.078,0.623,0.013,1.379-0.054,2.178l-0.013,0.152
		c-0.089,1.557-0.559,3.47-1.376,5.633c-0.7,1.467-1.682,3.349-3.076,4.893l-0.198,0.23c-0.107,0.124-0.211,0.247-0.361,0.394
		c-0.356,0.397-0.758,0.793-1.2,1.178c-0.157,0.137-0.321,0.259-0.484,0.382l-0.193,0.145c-0.081,0.061-0.162,0.124-0.244,0.185
		c0.153-0.264,0.308-0.545,0.469-0.854c0.661-1.277,1.218-2.707,1.758-4.543c0.521-2.348,0.715-4.375,0.586-6.007l-0.015-0.248
		c-0.044-0.781-0.087-1.518-0.26-2.167c-0.053-0.236-0.096-0.46-0.137-0.672c-0.078-0.409-0.15-0.792-0.273-1.145l-0.527-1.454
		l-1.229,0.396l0.379,1.483c0.068,0.273,0.094,0.595,0.125,0.948c0.021,0.229,0.043,0.469,0.077,0.745
		c0.091,0.534,0.064,1.185,0.037,1.875l-0.01,0.267c-0.023,1.443-0.375,3.225-1.028,5.25c-0.58,1.417-1.165,2.59-1.791,3.589
		c-0.435,0.692-0.822,1.223-1.246,1.699c-0.081,0.104-0.169,0.201-0.257,0.297L67.2,23.01c-0.092,0.109-0.183,0.216-0.277,0.316
		c-0.392,0.414-0.764,0.768-1.13,1.078c0.328-0.672,0.613-1.374,0.854-2.094c0.289-0.87,0.544-1.811,0.788-2.913
		c0.336-2.197,0.403-4.08,0.204-5.56c-0.112-1.443-0.466-2.617-0.725-3.475l-0.695-1.74l-1.206,0.461l0.399,1.274l0.071,0.379
		c0.161,0.849,0.361,1.906,0.324,3.203c0.042,1.328-0.196,2.984-0.69,4.877c-0.474,1.404-1.163,3.216-2.271,4.77l-0.196,0.293
		c-0.386,0.588-0.854,1.17-1.486,1.831c-0.114,0.12-0.228,0.241-0.348,0.356c0.023-0.054,0.046-0.109,0.064-0.163
		c0.187-0.526,0.348-1.055,0.481-1.588c0.209-0.844,0.384-1.75,0.55-2.902c0.16-2.055,0.101-3.798-0.168-5.151
		c-0.196-1.339-0.595-2.411-0.887-3.191l-0.748-1.547l-1.173,0.542l0.438,1.142l0.084,0.339c0.188,0.773,0.425,1.735,0.465,2.931
		c0.101,1.219-0.025,2.757-0.363,4.525c-0.285,1.06-0.688,2.437-1.296,3.699c-0.183,0.377-0.382,0.747-0.628,1.14
		c-0.237,0.437-0.519,0.876-0.895,1.389c-0.059,0.084-0.122,0.165-0.212,0.28c-0.212,0.276-0.437,0.545-0.669,0.802
		c0.089-0.351,0.171-0.725,0.247-1.139c0.187-0.985,0.313-2.055,0.392-3.315c-0.005-1.888-0.183-3.501-0.527-4.769
		c-0.288-1.242-0.735-2.214-1.059-2.923l-0.808-1.354l-1.124,0.643l0.481,1.01l0.085,0.269c0.224,0.71,0.506,1.593,0.622,2.707
		c0.163,1.144,0.145,2.571-0.048,4.197c-0.232,1.223-0.583,2.808-1.232,4.231l-0.081,0.183c-0.023,0.058-0.046,0.117-0.095,0.216
		c-0.145,0.341-0.312,0.67-0.488,0.992l0.041,0.023l-0.001,0.003l-0.04-0.023c-0.345,0.625-0.763,1.248-1.272,1.892
		c0.056-0.354,0.105-0.735,0.148-1.16c0.282-2.75-0.008-5.558-0.791-7.682c-0.382-1.15-0.881-2.027-1.247-2.665l-0.872-1.171
		l-1.056,0.753l0.532,0.882l0.079,0.192c0.266,0.654,0.598,1.467,0.799,2.516c0.55,2.434,0.3,5.621-0.664,8.341
		c-0.043,0.137-0.094,0.269-0.145,0.4l-0.074,0.191c-0.357,0.939-0.858,1.905-1.489,2.869l0.537,0.364l-0.55-0.186
		c0.249-3.203-0.279-6.515-1.434-8.924c-0.099-0.183-0.189-0.359-0.277-0.532c-0.178-0.351-0.344-0.677-0.545-0.976l-0.79-1.084
		c-0.494-0.516-0.789-0.79-0.789-0.79L41.39,23.4c0.006,0.006,0.245,0.303,0.573,0.748l0.559,1.06
		c0.119,0.246,0.214,0.527,0.316,0.826c0.066,0.194,0.135,0.395,0.201,0.565c0.695,2.177,0.738,5.212,0.102,7.97
		c-0.069,0.437-0.216,0.867-0.371,1.321c-0.081,0.242-0.164,0.483-0.216,0.666c-0.208,0.534-0.453,1.081-0.731,1.631l-0.077,0.168
		c-0.068,0.102-0.13,0.208-0.193,0.31c-0.002-0.035-0.003-0.071-0.003-0.105c-0.087-3.136-0.944-6.354-2.307-8.631
		c-0.305-0.463-0.6-0.876-0.862-1.242l-0.964-1.035c-0.188-0.186-0.375-0.318-0.53-0.421c-0.048-0.032-0.089-0.06-0.158-0.114
		l-0.226-0.162l-0.811,1.02l0.167,0.16c0.053,0.058,0.119,0.117,0.193,0.188c0.087,0.077,0.194,0.173,0.285,0.293l0.636,0.876
		l0.071,0.14c0.187,0.366,0.393,0.768,0.587,1.175c0.858,2.058,1.201,4.979,0.891,7.638c-0.107,1.17-0.382,2.379-0.794,3.518
		c-0.518-2.885-1.661-5.665-3.101-7.519c-0.25-0.354-0.527-0.636-0.773-0.886c-0.112-0.116-0.221-0.226-0.364-0.384
		c-0.245-0.224-0.491-0.405-0.71-0.568c-0.096-0.069-0.186-0.133-0.318-0.235c-0.443-0.289-0.788-0.429-0.974-0.506l-0.267,0.553
		l-0.648,0.176l0.045,0.055l-0.028,0.01l0.364,0.414c0.112,0.066,0.351,0.211,0.602,0.429c0.085,0.089,0.178,0.181,0.278,0.278
		c0.155,0.155,0.328,0.323,0.45,0.468c0.094,0.145,0.198,0.292,0.308,0.44c0.165,0.228,0.341,0.468,0.501,0.779
		c1.064,1.884,1.724,4.714,1.722,7.389c-0.002,1.292-0.163,2.649-0.468,3.923c-0.097,0.407-0.209,0.792-0.333,1.165
		c-0.252,0.771-0.534,1.432-0.857,1.99c-0.121,0.234-0.267,0.424-0.399,0.6c-0.105,0.141-0.204,0.273-0.237,0.337
		c-0.122,0.146-0.246,0.258-0.354,0.36c-0.097,0.094-0.187,0.178-0.201,0.201c-0.194,0.162-0.339,0.241-0.41,0.279l-0.374,0.818
		l2.058,3.097l0.948,0.128l0.318-0.273c0.036-0.039,0.086-0.078,0.14-0.123c0.181-0.15,0.428-0.356,0.621-0.643l0.214-0.279
		c0.214-0.278,0.457-0.595,0.702-1.006c0.069-0.146,0.15-0.297,0.232-0.449c0.193-0.362,0.412-0.774,0.563-1.209
		c0.214-0.543,0.399-1.144,0.554-1.78c0.254-0.214,0.534-0.461,0.821-0.809c0.096-0.13,0.204-0.264,0.318-0.4
		c0.277-0.336,0.588-0.715,0.788-1.137c0.285-0.483,0.555-1.026,0.803-1.62c0.685-0.386,1.6-1.021,2.409-1.986
		c0.503-0.572,0.98-1.26,1.422-2.055c0.143-0.085,0.296-0.168,0.455-0.253c0.43-0.229,0.915-0.491,1.307-0.877l0.896-0.771
		c0.191-0.198,0.373-0.412,0.555-0.629l0.212-0.252c0.216-0.228,0.394-0.472,0.564-0.724c0.301-0.109,0.634-0.252,0.936-0.457
		l1.045-0.631c0.25-0.168,0.478-0.366,0.71-0.57l0.284-0.245c0.4-0.305,0.736-0.664,1.041-1.017c0.032-0.01,0.063-0.018,0.086-0.028
		c1.323-0.43,2.694-1.254,3.973-2.388c1.386-0.367,2.77-1.017,4.022-1.887c1.348-0.253,2.708-0.736,3.95-1.402
		c1.315-0.137,2.626-0.463,3.9-0.969c1.284-0.026,2.582-0.219,3.867-0.573c1.219,0.078,2.513,0.006,3.796-0.205
		c1.159,0.171,2.401,0.216,3.686,0.139c1.195,0.287,2.436,0.452,3.691,0.494c1.188,0.392,2.472,0.672,3.816,0.832l0.16,0.068
		c0.125,0.056,0.252,0.112,0.375,0.156c1.048,0.412,2.195,0.681,3.096,0.87c0.504,0.249,1.014,0.493,1.559,0.708
		c0.686,0.297,1.441,0.561,2.309,0.806c0.898,0.513,1.692,0.915,2.493,1.261c0.422,0.186,0.862,0.362,1.312,0.529
		c1.193,0.788,2.375,1.447,3.608,2.015l0.323,0.142c1.283,0.962,2.65,1.819,4.064,2.556c1.323,1.104,2.729,2.097,4.183,2.958
		c1.407,1.293,2.834,2.411,4.317,3.397c2.512,2.498,5.121,4.482,7.977,6.062c4.306,2.37,8.913,3.826,13.301,4.207
		c0.98,0.119,2.031,0.18,3.122,0.18c1.455,0,3.008-0.103,4.744-0.315c2.376-0.305,4.856-0.959,7.842-2.069
		c2.886-1.24,5.129-2.479,7.065-3.894c2.424-1.801,4.311-3.528,5.75-5.263c2.94-3.305,5.218-7.341,6.767-11.999
		c0.99-3.019,1.552-6.153,1.715-9.588C173.042,20.299,172.938,19.006,172.902,18.648z"/>
	<path fill="#FFFFFF" d="M31.97,61.641c-0.916,0-1.732,0.162-2.442,0.49c-0.573,0.258-1.135,0.654-1.686,1.191V51.299h-4.737
		c0.084,0.408,0.127,0.965,0.127,1.684v24.779h0.619l3.029-1.856c0.71,0.679,1.513,1.146,2.407,1.401
		c0.62,0.188,1.284,0.28,1.996,0.28c2.271,0,4.15-0.771,5.642-2.312c1.492-1.545,2.236-3.483,2.236-5.818
		c0-2.176-0.676-4.021-2.028-5.538C35.778,62.398,34.058,61.641,31.97,61.641z M33.588,73.802c-0.597,1.427-1.641,2.14-3.131,2.14
		c-1.124,0-1.893-0.469-2.305-1.402c-0.208-0.491-0.31-1.204-0.31-2.139v-5.293c0-1.332,0.356-2.291,1.066-2.873
		c0.458-0.375,1.021-0.562,1.686-0.562c1.08,0,1.928,0.433,2.547,1.295c0.71,1.007,1.064,2.584,1.064,4.732
		C34.206,71.454,34.001,72.818,33.588,73.802z"/>
	<path fill="#FFFFFF" d="M165.085,61.641c-1.03,0-1.983,0.396-2.854,1.19c-0.619,0.562-1.125,1.249-1.516,2.067
		c0-0.891-0.046-1.758-0.137-2.601c0-0.116-0.034-0.376-0.104-0.774c-0.804,0.308-1.631,0.563-2.478,0.774
		c-1.216,0.306-2.58,0.527-4.095,0.667v1.196h0.551c0.688,0,1.17,0.259,1.443,0.774c0.275,0.517,0.412,1.405,0.412,2.672v5.834
		c0,1.033-0.152,1.734-0.463,2.108c-0.31,0.376-0.765,0.563-1.359,0.563l-0.584,0.033v1.158l4.715-0.105l5.057,0.068v-1.154h-0.585
		c-1.01,0-1.663-0.316-1.961-0.949c-0.14-0.281-0.208-0.855-0.208-1.725v-4.395c0-1.688,0.242-2.918,0.725-3.689
		c0.345-0.562,0.813-0.845,1.412-0.845c0.272,0,0.516,0.117,0.719,0.349c0.094,0.166,0.197,0.316,0.312,0.457
		c0.205,0.304,0.391,0.515,0.549,0.632c0.299,0.211,0.689,0.313,1.172,0.313c0.664,0,1.18-0.244,1.547-0.734
		c0.299-0.396,0.449-0.889,0.449-1.473c0-0.701-0.26-1.279-0.775-1.734C166.514,61.867,165.863,61.641,165.085,61.641z"/>
	<path fill="#FFFFFF" d="M148.021,74.152l-1.137-0.912c-0.645,0.796-1.289,1.374-1.943,1.736c-0.654,0.361-1.418,0.541-2.289,0.541
		c-1.237,0-2.271-0.42-3.096-1.262c-0.988-1.027-1.479-2.546-1.479-4.557v-0.77h9.29c0.458,0,0.732-0.115,0.824-0.35
		c0.023-0.048,0.035-0.234,0.035-0.562c0-1.658-0.574-3.097-1.721-4.311c-1.285-1.38-3.04-2.068-5.265-2.068
		c-2.339,0-4.308,0.768-5.9,2.297c-1.596,1.529-2.392,3.487-2.392,5.869c0,2.313,0.803,4.207,2.408,5.68
		c1.537,1.401,3.44,2.103,5.711,2.103c1.399,0,2.714-0.28,3.938-0.841C146.236,76.188,147.24,75.32,148.021,74.152z M138.977,64.215
		c0.601-0.781,1.314-1.173,2.146-1.173c0.785,0,1.419,0.354,1.902,1.069c0.484,0.712,0.729,1.521,0.729,2.436
		c0,0.42-0.14,0.688-0.417,0.807c-0.115,0.047-0.415,0.07-0.898,0.07h-4.361C138.077,66.066,138.377,64.998,138.977,64.215z"/>
	<path fill="#FFFFFF" d="M113.684,66.934h1.31c0.228-1.521,0.916-2.561,2.063-3.119c0.642-0.305,1.514-0.457,2.615-0.457h1.547
		l-8.017,12.865v1.049h13.28l0.207-5.362h-1.17c-0.252,1.311-0.679,2.256-1.274,2.84c-0.687,0.701-1.835,1.053-3.438,1.053h-2.063
		l7.946-12.692v-1.153h-12.695L113.684,66.934z"/>
	<path fill="#FFFFFF" d="M100.093,61.641c-2.338,0-4.306,0.767-5.899,2.295c-1.594,1.53-2.391,3.488-2.391,5.871
		c0,2.312,0.801,4.207,2.407,5.678c1.536,1.402,3.44,2.104,5.712,2.104c1.398,0,2.712-0.279,3.939-0.841
		c1.228-0.56,2.229-1.425,3.011-2.595l-1.136-0.911c-0.644,0.796-1.291,1.374-1.942,1.735c-0.655,0.362-1.417,0.543-2.289,0.543
		c-1.239,0-2.272-0.42-3.098-1.263c-0.985-1.028-1.479-2.546-1.479-4.557V68.93h9.29c0.457,0,0.732-0.115,0.824-0.35
		c0.022-0.048,0.036-0.234,0.036-0.562c0-1.658-0.575-3.097-1.723-4.311C104.072,62.328,102.318,61.641,100.093,61.641z
		 M102.188,67.354c-0.114,0.047-0.412,0.07-0.896,0.07H96.93c0-1.355,0.301-2.426,0.897-3.209c0.603-0.781,1.315-1.173,2.147-1.173
		c0.783,0,1.418,0.354,1.901,1.069c0.483,0.712,0.729,1.521,0.729,2.436C102.605,66.967,102.467,67.234,102.188,67.354z"/>
	<path fill="#FFFFFF" d="M84.095,75.537c-0.298-0.362-0.448-1.069-0.448-2.122v-6.067c0-1.543-0.193-2.724-0.583-3.543
		c-0.689-1.449-2.042-2.175-4.06-2.175c-1.032,0-1.951,0.175-2.752,0.525c-1.171,0.515-2.099,1.391-2.788,2.63
		c0-0.469-0.03-0.889-0.085-1.262c-0.058-0.375-0.167-1.006-0.328-1.895c-1.422,0.479-3.577,0.909-6.467,1.297v1.156
		c0.987,0,1.651,0.391,1.996,1.165c0.183,0.424,0.275,1.117,0.275,2.081v6.068c0,1.037-0.155,1.742-0.465,2.115
		c-0.308,0.379-0.763,0.567-1.357,0.567l-0.587,0.034v1.191l4.714-0.105l4.507,0.068v-1.188h-0.516c-0.756,0-1.26-0.328-1.512-0.981
		c-0.116-0.306-0.173-0.867-0.173-1.687v-4.032c0-1.73,0.275-3.047,0.826-3.945c0.551-0.899,1.33-1.353,2.34-1.353
		c0.985,0,1.674,0.411,2.064,1.229c0.229,0.488,0.343,1.203,0.343,2.139v0.49v5.472c0,0.772-0.067,1.346-0.204,1.72
		c-0.231,0.633-0.724,0.948-1.48,0.948l-0.517,0.034v1.191l4.508-0.105l4.714,0.068v-1.188h-0.587
		C84.853,76.081,84.393,75.898,84.095,75.537z"/>
	<path fill="#FFFFFF" d="M59.426,73.24c-0.643,0.796-1.29,1.374-1.944,1.736c-0.654,0.361-1.416,0.541-2.287,0.541
		c-1.239,0-2.272-0.42-3.096-1.262c-0.987-1.027-1.479-2.546-1.479-4.557v-0.77h9.29c0.457,0,0.731-0.115,0.824-0.35
		c0.023-0.048,0.036-0.234,0.036-0.562c0-1.658-0.575-3.097-1.72-4.311c-1.287-1.38-3.04-2.068-5.266-2.068
		c-2.338,0-4.306,0.768-5.9,2.297c-1.595,1.529-2.39,3.487-2.39,5.869c0,2.313,0.801,4.207,2.408,5.68
		c1.536,1.401,3.44,2.103,5.711,2.103c1.399,0,2.712-0.28,3.94-0.841c1.228-0.561,2.229-1.426,3.01-2.594L59.426,73.24z
		 M51.517,64.215c0.602-0.781,1.316-1.173,2.147-1.173c0.784,0,1.419,0.354,1.903,1.069c0.484,0.712,0.728,1.521,0.728,2.436
		c0,0.42-0.138,0.688-0.417,0.807c-0.115,0.047-0.414,0.07-0.898,0.07h-4.361C50.619,66.066,50.919,64.998,51.517,64.215z"/>
	<path fill="#FFFFFF" d="M15.079,74.152l-1.135-0.912C13.3,74.036,12.652,74.614,12,74.977c-0.654,0.361-1.417,0.541-2.289,0.541
		c-1.238,0-2.271-0.42-3.096-1.262c-0.987-1.027-1.48-2.546-1.48-4.557v-0.77h9.29c0.458,0,0.733-0.115,0.826-0.35
		c0.021-0.048,0.035-0.234,0.035-0.562c0-1.658-0.573-3.097-1.72-4.311c-1.285-1.38-3.04-2.068-5.265-2.068
		c-2.34,0-4.307,0.768-5.9,2.297c-1.595,1.529-2.391,3.487-2.391,5.869c0,2.313,0.802,4.207,2.407,5.68
		c1.538,1.401,3.442,2.103,5.713,2.103c1.397,0,2.71-0.28,3.938-0.841C13.294,76.188,14.298,75.32,15.079,74.152z M6.034,64.215
		c0.6-0.781,1.315-1.173,2.147-1.173c0.784,0,1.419,0.354,1.903,1.069c0.484,0.712,0.727,1.521,0.727,2.436
		c0,0.42-0.139,0.688-0.416,0.807c-0.117,0.047-0.415,0.07-0.899,0.07H5.134C5.134,66.066,5.435,64.998,6.034,64.215z"/>
	<path fill="#FFFFFF" d="M162.658,89.434c-0.223-0.283-0.508-0.507-0.858-0.674c-0.35-0.166-0.776-0.248-1.282-0.248
		c-0.424,0-0.83,0.082-1.221,0.248c-0.395,0.167-0.722,0.402-0.984,0.709c-0.062,0.062-0.107,0.088-0.138,0.074
		c-0.03-0.012-0.047-0.057-0.047-0.129v-0.682c0-0.086-0.034-0.129-0.106-0.129h-0.488c-0.084,0-0.126,0.043-0.126,0.129v7.772
		c0,0.073,0.042,0.11,0.126,0.11h0.507c0.084,0,0.127-0.042,0.127-0.129v-4.998c0-0.318,0.056-0.615,0.162-0.891
		c0.108-0.277,0.257-0.518,0.442-0.728c0.187-0.207,0.412-0.374,0.68-0.496c0.265-0.123,0.561-0.183,0.885-0.183
		c0.398,0,0.739,0.063,1.021,0.192c0.285,0.128,0.511,0.296,0.679,0.505c0.17,0.209,0.292,0.455,0.371,0.744
		c0.079,0.286,0.118,0.585,0.118,0.891v4.979c0,0.073,0.041,0.11,0.125,0.11h0.523c0.072,0,0.108-0.043,0.108-0.129v-4.957
		c0-0.392-0.048-0.77-0.146-1.131C163.042,90.037,162.882,89.714,162.658,89.434z"/>
	<path fill="#FFFFFF" d="M149.061,88.512c-0.918,0-1.641,0.268-2.166,0.801c-0.525,0.535-0.789,1.237-0.789,2.108v2.358
		c0,0.896,0.254,1.607,0.762,2.137c0.509,0.527,1.24,0.793,2.193,0.793c0.92,0,1.637-0.259,2.15-0.771
		c0.516-0.519,0.771-1.248,0.771-2.193v-2.303c0-0.909-0.262-1.625-0.781-2.146C150.682,88.771,149.969,88.512,149.061,88.512z
		 M151.223,93.75c0,0.71-0.18,1.273-0.541,1.689c-0.357,0.416-0.899,0.625-1.621,0.625c-0.72,0-1.266-0.209-1.638-0.625
		s-0.56-0.976-0.56-1.672v-2.315c0-0.662,0.205-1.202,0.613-1.626c0.406-0.422,0.937-0.633,1.584-0.633
		c0.721,0,1.263,0.213,1.621,0.643c0.36,0.43,0.541,0.975,0.541,1.637V93.75L151.223,93.75z"/>
	<path fill="#FFFFFF" d="M140.247,88.604h-0.509c-0.084,0-0.127,0.043-0.127,0.129v7.773c0,0.073,0.043,0.11,0.127,0.11h0.509
		c0.082,0,0.125-0.037,0.125-0.11v-7.773C140.372,88.646,140.329,88.604,140.247,88.604z"/>
	<path fill="#FFFFFF" d="M140.012,85.729c-0.146,0-0.271,0.054-0.381,0.154c-0.109,0.104-0.163,0.232-0.163,0.391
		c0,0.168,0.054,0.306,0.163,0.408c0.107,0.104,0.235,0.154,0.381,0.154s0.271-0.057,0.379-0.163
		c0.108-0.108,0.164-0.241,0.164-0.399c0-0.157-0.053-0.287-0.156-0.391C140.296,85.781,140.168,85.729,140.012,85.729z"/>
	<path fill="#FFFFFF" d="M124.721,89.434c-0.223-0.283-0.508-0.507-0.859-0.674c-0.348-0.166-0.776-0.248-1.282-0.248
		c-0.422,0-0.829,0.082-1.222,0.248c-0.393,0.167-0.721,0.402-0.984,0.709c-0.061,0.062-0.105,0.088-0.137,0.074
		c-0.03-0.012-0.045-0.057-0.045-0.129v-0.682c0-0.086-0.034-0.129-0.108-0.129h-0.487c-0.084,0-0.125,0.043-0.125,0.129v7.772
		c0,0.073,0.041,0.11,0.125,0.11h0.508c0.082,0,0.125-0.042,0.125-0.129v-4.998c0-0.318,0.055-0.615,0.162-0.891
		c0.109-0.277,0.256-0.518,0.443-0.728c0.188-0.207,0.412-0.374,0.68-0.496c0.264-0.123,0.559-0.183,0.885-0.183
		c0.398,0,0.74,0.063,1.021,0.192c0.284,0.128,0.511,0.296,0.681,0.505c0.168,0.209,0.291,0.455,0.369,0.744
		c0.078,0.286,0.117,0.585,0.117,0.891v4.979c0,0.073,0.041,0.11,0.127,0.11h0.523c0.072,0,0.109-0.043,0.109-0.129v-4.957
		c0-0.392-0.049-0.77-0.146-1.131C125.104,90.037,124.943,89.714,124.721,89.434z"/>
	<path fill="#FFFFFF" d="M113.4,89.275c-0.26-0.252-0.568-0.442-0.933-0.571c-0.36-0.129-0.753-0.192-1.175-0.192
		c-0.41,0-0.792,0.067-1.148,0.202c-0.354,0.136-0.662,0.331-0.92,0.591c-0.262,0.256-0.466,0.569-0.617,0.938
		c-0.149,0.366-0.226,0.784-0.226,1.252v2.321c0,0.884,0.263,1.588,0.787,2.107c0.522,0.523,1.239,0.784,2.144,0.784
		c0.543,0,1.03-0.104,1.465-0.312c0.435-0.211,0.777-0.512,1.031-0.904c0.022-0.074,0-0.141-0.072-0.203l-0.346-0.221
		c-0.084-0.062-0.16-0.043-0.232,0.056c-0.205,0.282-0.458,0.503-0.766,0.663c-0.307,0.158-0.658,0.238-1.055,0.238
		c-0.673,0-1.206-0.213-1.602-0.642c-0.397-0.427-0.596-0.959-0.596-1.594v-0.88c0-0.158,0.072-0.238,0.217-0.238h4.631
		c0.06,0,0.117-0.023,0.172-0.072c0.053-0.05,0.081-0.131,0.081-0.24v-0.791c0-0.517-0.076-0.965-0.226-1.346
		C113.863,89.843,113.66,89.527,113.4,89.275z M113.482,91.828c0,0.134-0.056,0.201-0.164,0.201h-3.959
		c-0.146,0-0.217-0.067-0.217-0.201v-0.438c0-0.308,0.053-0.594,0.162-0.861c0.106-0.268,0.26-0.504,0.459-0.704
		c0.198-0.202,0.424-0.355,0.684-0.466c0.259-0.111,0.544-0.166,0.854-0.166c0.66,0,1.189,0.207,1.587,0.621
		c0.396,0.416,0.594,0.946,0.594,1.595V91.828z"/>
	<path fill="#FFFFFF" d="M103.701,95.87c-0.026-0.029-0.074-0.033-0.145-0.011c-0.135,0.039-0.315,0.076-0.545,0.11
		c-0.229,0.038-0.427,0.056-0.597,0.056c-0.435,0-0.743-0.131-0.931-0.394c-0.188-0.262-0.28-0.681-0.28-1.254V89.45
		c0-0.11,0.043-0.166,0.127-0.166h1.987c0.086,0,0.127-0.043,0.127-0.132v-0.42c0-0.086-0.041-0.129-0.127-0.129h-2.008
		c-0.07,0-0.106-0.051-0.106-0.148V86.43c0-0.099-0.048-0.142-0.146-0.13l-0.488,0.13c-0.084,0.012-0.127,0.062-0.127,0.147v1.878
		c0,0.1-0.041,0.148-0.127,0.148h-1.012c-0.072,0-0.107,0.043-0.107,0.129v0.42c0,0.089,0.035,0.132,0.107,0.132h0.995
		c0.097,0,0.144,0.056,0.144,0.166v5.071c0,0.306,0.029,0.596,0.082,0.863c0.054,0.271,0.15,0.504,0.289,0.698
		c0.139,0.196,0.328,0.349,0.57,0.458c0.24,0.111,0.547,0.167,0.922,0.167c0.193,0,0.435-0.015,0.723-0.038
		c0.289-0.025,0.525-0.076,0.705-0.15c0.072-0.024,0.103-0.082,0.091-0.17l-0.07-0.38C103.742,95.938,103.725,95.898,103.701,95.87z
		"/>
	<path fill="#FFFFFF" d="M92.723,92.562c-0.022-0.035-0.045-0.076-0.062-0.119c-0.019-0.043,0.003-0.112,0.062-0.211l2.117-3.465
		c0.023-0.035,0.029-0.072,0.018-0.109c-0.012-0.036-0.047-0.055-0.107-0.055h-0.471c-0.084,0-0.146,0.006-0.18,0.019
		c-0.037,0.013-0.08,0.062-0.129,0.146l-1.718,2.873c-0.048,0.111-0.096,0.117-0.144,0.021l-1.736-2.895
		c-0.051-0.086-0.091-0.134-0.127-0.146c-0.036-0.013-0.096-0.019-0.182-0.019h-0.471c-0.061,0-0.097,0.019-0.107,0.055
		c-0.014,0.038-0.008,0.074,0.018,0.109l2.098,3.445c0.062,0.086,0.092,0.15,0.092,0.192c0,0.045-0.029,0.114-0.092,0.213
		l-2.369,3.831c-0.071,0.109-0.041,0.166,0.092,0.166h0.488c0.061,0,0.11-0.01,0.153-0.027c0.041-0.02,0.087-0.064,0.136-0.139
		l1.988-3.297c0.023-0.036,0.051-0.062,0.082-0.074c0.03-0.012,0.057,0.013,0.081,0.074l1.988,3.297
		c0.05,0.074,0.095,0.119,0.137,0.139c0.042,0.018,0.101,0.027,0.172,0.027h0.487c0.132,0,0.163-0.057,0.091-0.166L92.723,92.562z"
		/>
	<path fill="#FFFFFF" d="M83.943,89.275c-0.259-0.252-0.569-0.442-0.931-0.571c-0.361-0.129-0.753-0.192-1.175-0.192
		c-0.41,0-0.792,0.067-1.148,0.202c-0.356,0.136-0.663,0.331-0.921,0.591c-0.26,0.256-0.464,0.569-0.616,0.938
		c-0.15,0.366-0.226,0.784-0.226,1.252v2.321c0,0.884,0.262,1.588,0.788,2.107c0.524,0.523,1.239,0.784,2.142,0.784
		c0.544,0,1.032-0.104,1.465-0.312c0.435-0.211,0.778-0.512,1.032-0.904c0.023-0.074,0-0.141-0.073-0.203l-0.344-0.221
		c-0.084-0.062-0.162-0.043-0.234,0.056c-0.205,0.282-0.458,0.503-0.765,0.663c-0.307,0.158-0.658,0.238-1.053,0.238
		c-0.672,0-1.208-0.213-1.603-0.642c-0.397-0.427-0.595-0.959-0.595-1.594v-0.88c0-0.158,0.072-0.238,0.217-0.238h4.63
		c0.059,0,0.117-0.023,0.171-0.072c0.053-0.05,0.081-0.131,0.081-0.24v-0.791c0-0.517-0.076-0.965-0.226-1.346
		C84.408,89.843,84.204,89.527,83.943,89.275z M84.025,91.828c0,0.134-0.054,0.201-0.163,0.201h-3.959
		c-0.145,0-0.217-0.067-0.217-0.201v-0.438c0-0.308,0.054-0.594,0.163-0.861c0.107-0.268,0.26-0.504,0.458-0.704
		c0.199-0.202,0.425-0.355,0.684-0.466c0.259-0.11,0.544-0.166,0.855-0.166c0.662,0,1.189,0.207,1.587,0.621
		c0.395,0.416,0.593,0.946,0.593,1.595L84.025,91.828L84.025,91.828z"/>
	<path fill="#FFFFFF" d="M65.699,89.439c-0.224-0.274-0.509-0.498-0.858-0.672c-0.351-0.172-0.779-0.257-1.285-0.257
		c-0.422,0-0.822,0.075-1.201,0.229c-0.381,0.154-0.708,0.391-0.987,0.71c-0.048,0.062-0.089,0.084-0.125,0.063
		c-0.036-0.018-0.055-0.063-0.055-0.139V85.01c0-0.084-0.036-0.129-0.108-0.129h-0.508c-0.082,0-0.125,0.045-0.125,0.129v11.496
		c0,0.073,0.043,0.11,0.125,0.11h0.508c0.084,0,0.127-0.042,0.127-0.128v-4.999c0-0.318,0.053-0.615,0.161-0.892
		c0.109-0.275,0.257-0.517,0.445-0.727c0.187-0.207,0.412-0.374,0.677-0.496c0.266-0.123,0.561-0.184,0.887-0.184
		c0.397,0,0.735,0.064,1.012,0.193c0.277,0.129,0.502,0.297,0.679,0.504c0.173,0.209,0.302,0.457,0.379,0.745
		c0.079,0.286,0.117,0.585,0.117,0.892v4.979c0,0.073,0.043,0.11,0.128,0.11h0.506c0.084,0,0.125-0.042,0.125-0.128v-4.957
		c0-0.381-0.048-0.754-0.144-1.122C66.082,90.04,65.922,89.718,65.699,89.439z"/>
	<path fill="#FFFFFF" d="M54.643,93.016c-0.231-0.184-0.486-0.341-0.77-0.469c-0.284-0.129-0.577-0.247-0.877-0.357
		c-0.204-0.075-0.417-0.157-0.634-0.248c-0.216-0.094-0.42-0.199-0.613-0.323c-0.194-0.122-0.351-0.269-0.471-0.438
		c-0.121-0.173-0.182-0.38-0.182-0.625c0-0.246,0.058-0.453,0.171-0.625c0.114-0.173,0.259-0.312,0.432-0.424
		c0.173-0.109,0.361-0.189,0.558-0.238c0.198-0.049,0.381-0.072,0.549-0.072c0.334,0,0.667,0.065,0.997,0.201
		c0.331,0.137,0.616,0.318,0.855,0.552c0.086,0.088,0.163,0.094,0.236,0.02l0.254-0.295c0.071-0.073,0.077-0.146,0.016-0.221
		c-0.275-0.298-0.62-0.528-1.03-0.693c-0.41-0.163-0.855-0.245-1.338-0.245c-0.302,0-0.6,0.047-0.895,0.139
		c-0.295,0.091-0.557,0.225-0.788,0.396c-0.228,0.173-0.416,0.388-0.561,0.646c-0.145,0.256-0.216,0.56-0.216,0.901
		c0,0.369,0.086,0.679,0.262,0.931c0.174,0.252,0.394,0.467,0.659,0.646c0.266,0.181,0.552,0.324,0.86,0.44
		c0.307,0.117,0.592,0.225,0.858,0.324c0.193,0.073,0.389,0.158,0.588,0.258c0.198,0.098,0.375,0.211,0.532,0.342
		c0.157,0.127,0.287,0.281,0.389,0.46c0.103,0.178,0.155,0.39,0.155,0.636c0,0.441-0.173,0.796-0.518,1.059
		c-0.343,0.266-0.791,0.396-1.346,0.396c-0.423,0-0.816-0.105-1.185-0.312c-0.368-0.209-0.643-0.479-0.822-0.812
		c-0.025-0.024-0.048-0.05-0.073-0.073c-0.024-0.024-0.059-0.024-0.109,0l-0.397,0.202c-0.085,0.037-0.102,0.093-0.054,0.166
		c0.24,0.503,0.603,0.875,1.084,1.114c0.481,0.238,0.995,0.357,1.538,0.357c0.445,0,0.833-0.061,1.165-0.185
		c0.333-0.121,0.608-0.278,0.829-0.478c0.221-0.194,0.384-0.422,0.489-0.68c0.104-0.257,0.157-0.514,0.157-0.771
		c0-0.366-0.069-0.68-0.208-0.938C55.055,93.42,54.87,93.197,54.643,93.016z"/>
	<path fill="#FFFFFF" d="M42.58,88.493c-0.362,0-0.748,0.04-1.157,0.118c-0.41,0.08-0.766,0.195-1.068,0.342
		c-0.072,0.038-0.102,0.092-0.09,0.166l0.163,0.386c0.036,0.099,0.097,0.117,0.181,0.056c0.12-0.049,0.262-0.097,0.423-0.146
		c0.163-0.049,0.333-0.092,0.508-0.13c0.174-0.036,0.346-0.064,0.516-0.082c0.168-0.02,0.325-0.028,0.47-0.028
		c0.398,0,0.727,0.06,0.985,0.175c0.26,0.117,0.461,0.268,0.606,0.453c0.143,0.184,0.244,0.396,0.298,0.635
		c0.055,0.24,0.081,0.487,0.081,0.746v0.848c0,0.061-0.015,0.103-0.044,0.119c-0.03,0.02-0.069,0.005-0.117-0.045
		c-0.206-0.246-0.479-0.437-0.824-0.572c-0.343-0.135-0.702-0.2-1.076-0.2c-0.445,0-0.84,0.072-1.185,0.222
		c-0.343,0.146-0.629,0.342-0.857,0.588c-0.23,0.246-0.405,0.533-0.525,0.866c-0.121,0.331-0.182,0.688-0.182,1.067
		c0,0.785,0.228,1.422,0.679,1.906c0.451,0.485,1.092,0.729,1.926,0.729c0.927,0,1.626-0.324,2.097-0.979
		c0.035-0.047,0.071-0.071,0.107-0.071c0.036,0,0.054,0.043,0.054,0.129v0.718c0,0.073,0.036,0.11,0.109,0.11h0.471
		c0.083,0,0.125-0.042,0.125-0.128v-5.25c0-0.885-0.204-1.563-0.614-2.036C44.23,88.729,43.545,88.493,42.58,88.493z M43.891,95.475
		c-0.38,0.405-0.878,0.608-1.493,0.608c-0.71,0-1.223-0.198-1.538-0.59c-0.311-0.394-0.468-0.879-0.468-1.455
		c0-0.283,0.043-0.554,0.133-0.812c0.092-0.259,0.224-0.482,0.399-0.672c0.175-0.19,0.392-0.342,0.651-0.451
		c0.259-0.11,0.552-0.168,0.876-0.168c0.628,0,1.119,0.203,1.473,0.608C44.282,92.95,44.46,93.438,44.46,94
		C44.46,94.578,44.27,95.068,43.891,95.475z"/>
	<path fill="#FFFFFF" d="M35.112,95.99h-0.179c-0.363,0-0.597-0.096-0.706-0.286c-0.108-0.188-0.163-0.47-0.163-0.837V85.01
		c0-0.084-0.044-0.129-0.13-0.129h-0.518c-0.076,0-0.112,0.045-0.112,0.129v10.115c0,0.223,0.019,0.426,0.055,0.616
		c0.038,0.19,0.109,0.356,0.212,0.498c0.107,0.14,0.254,0.256,0.443,0.34c0.189,0.087,0.44,0.13,0.755,0.13h0.342
		c0.098,0,0.145-0.043,0.145-0.13v-0.422c0-0.05-0.006-0.091-0.018-0.121C35.228,96.007,35.185,95.99,35.112,95.99z"/>
	<path fill="#FFFFFF" d="M26.929,89.275c-0.259-0.252-0.568-0.442-0.931-0.571c-0.361-0.129-0.753-0.192-1.175-0.192
		c-0.41,0-0.792,0.067-1.148,0.202c-0.356,0.136-0.662,0.331-0.921,0.591c-0.26,0.256-0.465,0.569-0.616,0.938
		c-0.15,0.366-0.226,0.784-0.226,1.252v2.321c0,0.884,0.262,1.588,0.788,2.107c0.522,0.523,1.237,0.784,2.142,0.784
		c0.543,0,1.031-0.104,1.465-0.312c0.433-0.211,0.777-0.512,1.031-0.904c0.023-0.074,0-0.141-0.072-0.203l-0.345-0.221
		c-0.084-0.062-0.161-0.043-0.234,0.056c-0.204,0.282-0.458,0.503-0.765,0.663c-0.306,0.158-0.657,0.238-1.054,0.238
		c-0.672,0-1.207-0.213-1.604-0.642c-0.396-0.427-0.593-0.959-0.593-1.594v-0.88c0-0.158,0.073-0.238,0.216-0.238h4.632
		c0.06,0,0.117-0.023,0.171-0.072c0.053-0.05,0.081-0.131,0.081-0.24v-0.791c0-0.517-0.076-0.965-0.226-1.346
		C27.394,89.843,27.189,89.527,26.929,89.275z M27.012,91.828c0,0.134-0.054,0.201-0.163,0.201h-3.961
		c-0.143,0-0.216-0.067-0.216-0.201v-0.438c0-0.308,0.055-0.594,0.163-0.861c0.107-0.268,0.26-0.504,0.458-0.704
		c0.198-0.202,0.425-0.355,0.684-0.466c0.259-0.111,0.544-0.166,0.855-0.166c0.661,0,1.19,0.207,1.585,0.621
		c0.397,0.416,0.595,0.946,0.595,1.595V91.828z"/>
	<path fill="#FFFFFF" d="M17.066,88.604h-0.434c-0.074,0-0.122,0.02-0.145,0.056c-0.024,0.038-0.042,0.073-0.054,0.11l-2.315,7.02
		c-0.013,0.061-0.043,0.092-0.091,0.092c-0.025,0-0.048-0.031-0.072-0.092l-2.116-7.036c-0.048-0.101-0.121-0.147-0.218-0.147H11.17
		c-0.109,0-0.152,0.055-0.127,0.164l2.369,7.683c0.037,0.11,0.109,0.166,0.218,0.166h0.109c0.059,0,0.077,0.038,0.053,0.11
		l-0.976,3.039c-0.037,0.147,0.005,0.221,0.125,0.221h0.363c0.156,0,0.247-0.066,0.27-0.201l3.635-11.018
		C17.222,88.658,17.175,88.604,17.066,88.604z"/>
	<path fill="#FFFFFF" d="M5.79,89.275c-0.258-0.252-0.568-0.442-0.931-0.571c-0.361-0.129-0.753-0.192-1.175-0.192
		c-0.411,0-0.792,0.067-1.148,0.202c-0.356,0.136-0.664,0.331-0.923,0.591c-0.259,0.256-0.465,0.569-0.615,0.938
		c-0.151,0.366-0.226,0.784-0.226,1.252v2.321c0,0.884,0.262,1.588,0.786,2.107c0.526,0.523,1.239,0.784,2.144,0.784
		c0.542,0,1.03-0.104,1.465-0.312c0.433-0.211,0.776-0.512,1.03-0.904c0.025-0.074,0-0.141-0.073-0.203l-0.342-0.221
		c-0.084-0.062-0.163-0.043-0.234,0.056c-0.204,0.282-0.459,0.503-0.766,0.663c-0.306,0.158-0.656,0.238-1.053,0.238
		c-0.672,0-1.206-0.213-1.602-0.642c-0.397-0.427-0.595-0.959-0.595-1.594v-0.88c0-0.158,0.073-0.238,0.216-0.238H6.38
		c0.059,0,0.115-0.023,0.169-0.072c0.055-0.05,0.083-0.131,0.083-0.24v-0.791c0-0.517-0.076-0.965-0.226-1.346
		C6.255,89.843,6.051,89.527,5.79,89.275z M5.873,91.828c0,0.134-0.054,0.201-0.163,0.201H1.749c-0.144,0-0.216-0.067-0.216-0.201
		v-0.438c0-0.308,0.055-0.594,0.162-0.861s0.26-0.504,0.46-0.704c0.198-0.202,0.425-0.355,0.684-0.466
		c0.259-0.111,0.544-0.166,0.855-0.166c0.661,0,1.189,0.207,1.585,0.621c0.397,0.416,0.595,0.946,0.595,1.595L5.873,91.828
		L5.873,91.828z"/>
	<path fill="#FFFFFF" d="M134.855,90.085c-0.072,0.074-0.149,0.067-0.235-0.021c-0.239-0.231-0.524-0.414-0.854-0.551
		c-0.33-0.136-0.662-0.201-0.998-0.201c-0.168,0-0.351,0.023-0.549,0.071c-0.197,0.05-0.385,0.13-0.558,0.239
		s-0.318,0.251-0.433,0.424c-0.113,0.171-0.172,0.379-0.172,0.624c0,0.246,0.062,0.453,0.182,0.625
		c0.121,0.171,0.277,0.317,0.473,0.438c0.191,0.125,0.396,0.23,0.612,0.324c0.218,0.09,0.431,0.172,0.634,0.248
		c0.301,0.11,0.594,0.229,0.877,0.357s0.539,0.285,0.77,0.468c0.229,0.183,0.412,0.405,0.551,0.662
		c0.14,0.257,0.207,0.57,0.207,0.937c0,0.26-0.053,0.517-0.155,0.772c-0.104,0.257-0.269,0.483-0.489,0.679
		c-0.221,0.198-0.496,0.356-0.828,0.479c-0.332,0.124-0.721,0.186-1.164,0.186c-0.543,0-1.058-0.121-1.539-0.359
		c-0.48-0.238-0.844-0.61-1.084-1.113c-0.047-0.074-0.031-0.129,0.055-0.166l0.396-0.203c0.051-0.023,0.086-0.023,0.108,0
		c0.024,0.023,0.049,0.051,0.073,0.074c0.179,0.331,0.453,0.602,0.822,0.811c0.367,0.209,0.76,0.313,1.185,0.313
		c0.555,0,1.004-0.132,1.346-0.397c0.345-0.262,0.519-0.615,0.519-1.058c0-0.246-0.053-0.458-0.154-0.636
		c-0.104-0.18-0.232-0.334-0.389-0.461c-0.158-0.129-0.336-0.243-0.533-0.34c-0.199-0.101-0.396-0.186-0.588-0.26
		c-0.268-0.1-0.553-0.206-0.858-0.322c-0.308-0.117-0.595-0.263-0.86-0.441c-0.266-0.18-0.484-0.393-0.658-0.645
		c-0.176-0.252-0.263-0.562-0.263-0.932c0-0.343,0.071-0.646,0.216-0.9c0.146-0.26,0.334-0.475,0.562-0.646
		c0.229-0.171,0.491-0.305,0.787-0.396c0.295-0.092,0.594-0.138,0.896-0.138c0.482,0,0.928,0.082,1.338,0.245
		c0.409,0.165,0.756,0.396,1.029,0.693c0.062,0.074,0.055,0.146-0.018,0.221L134.855,90.085z"/>
</g>
</svg>
